<?xml version="1.0" encoding="utf-8"?>
<!-- Generator: Adobe Illustrator 12.0.0, SVG Export Plug-In . SVG Version: 6.00 Build 51448)  -->
<!DOCTYPE svg PUBLIC "-//W3C//DTD SVG 1.1//EN" "http://www.w3.org/Graphics/SVG/1.1/DTD/svg11.dtd" [
	<!ENTITY ns_svg "http://www.w3.org/2000/svg">
	<!ENTITY ns_xlink "http://www.w3.org/1999/xlink">
]>
<svg  version="1.1" xmlns="&ns_svg;" xmlns:xlink="&ns_xlink;" width="33" height="34.18" viewBox="0 0 33 34.18"
	 overflow="visible" enable-background="new 0 0 33 34.18" xml:space="preserve">
<filter  id="Gaussian_Blur">
	<feGaussianBlur  in="SourceGraphic" stdDeviation="1"></feGaussianBlur>
</filter>
<g id="Layer_15">
	<g id="Layer_1_3_" opacity="0">
		<rect x="7.203" y="1.166" fill="#636466" fill-opacity="0" stroke="#347A3C" width="19.59" height="19.589"/>
	</g>
	<g id="Layer_1_2_" opacity="0">
		<rect x="0.546" y="0.67" fill="#636466" fill-opacity="0" stroke="#347A3C" width="32" height="32"/>
	</g>
</g>
<g id="Layer_7">
	<g opacity="0.49" filter="url(#Gaussian_Blur)">
		<path fill="#636466" d="M19.681,29.797c-1.166,1.166-3.076,1.166-4.242,0L5.216,19.574c-1.167-1.166-1.167-3.076,0-4.242
			L15.438,5.11c1.167-1.167,3.076-1.167,4.242,0l10.223,10.222c1.166,1.167,1.166,3.076,0,4.242L19.681,29.797z"/>
	</g>
</g>
<g id="Layer_14">
	<g>
		
			<radialGradient id="XMLID_15_" cx="24.1436" cy="16.7327" r="14.5911" gradientTransform="matrix(0.7071 0.7071 -0.7071 0.7071 12.0214 -5.2361)" gradientUnits="userSpaceOnUse">
			<stop  offset="0.0169" style="stop-color:#FEF491"/>
			<stop  offset="0.427" style="stop-color:#FDBD6B"/>
			<stop  offset="0.8258" style="stop-color:#FDEA4F"/>
		</radialGradient>
		<path fill="url(#XMLID_15_)" d="M19.025,28.011c-1.166,1.166-3.075,1.166-4.242,0L4.562,17.789c-1.167-1.167-1.167-3.076,0-4.242
			L14.783,3.325c1.167-1.167,3.076-1.167,4.242,0l10.223,10.222c1.166,1.167,1.166,3.076,0,4.242L19.025,28.011z"/>
		<path fill="none" stroke="#AD6141" d="M19.025,28.011c-1.166,1.166-3.075,1.166-4.242,0L4.562,17.789
			c-1.167-1.167-1.167-3.076,0-4.242L14.783,3.325c1.167-1.167,3.076-1.167,4.242,0l10.223,10.222c1.166,1.167,1.166,3.076,0,4.242
			L19.025,28.011z"/>
	</g>
</g>
<g id="hilite">
	<g>
		<defs>
			<filter id="Adobe_OpacityMaskFilter" filterUnits="userSpaceOnUse" x="4.311" y="2.972" width="25.163" height="25.452">
				<feColorMatrix  type="matrix" values="1 0 0 0 0  0 1 0 0 0  0 0 1 0 0  0 0 0 1 0"/>
			</filter>
		</defs>
		<mask maskUnits="userSpaceOnUse" x="4.311" y="2.972" width="25.163" height="25.452" id="XMLID_16_">
			<g filter="url(#Adobe_OpacityMaskFilter)">
				<linearGradient id="XMLID_17_" gradientUnits="userSpaceOnUse" x1="16.8022" y1="3.7864" x2="16.8022" y2="14.093">
					<stop  offset="0" style="stop-color:#FFFFFF"/>
					<stop  offset="1" style="stop-color:#000000"/>
				</linearGradient>
				<rect x="3.537" y="2.72" fill="url(#XMLID_17_)" width="26.532" height="26.298"/>
			</g>
		</mask>
		<path mask="url(#XMLID_16_)" fill="none" stroke="#FFFFFF" d="M18.682,27.077c-1.122,1.129-2.55,1.129-3.673,0l-9.463-9.248
			c-1.121-1.127-0.892-2.887,0.229-4.016l9.062-9.32c1.401-1.363,2.707-1.363,4.026,0.016l9.271,9.22
			c1.121,1.128,1.121,2.974,0,4.101L18.682,27.077z"/>
	</g>
</g>
<g id="hilite_copy">
	<g opacity="0.71">
		<defs>
			<filter id="Adobe_OpacityMaskFilter_1_" filterUnits="userSpaceOnUse" x="6.968" y="6.138" width="18.93" height="18.363">
				<feColorMatrix  type="matrix" values="1 0 0 0 0  0 1 0 0 0  0 0 1 0 0  0 0 0 1 0"/>
			</filter>
		</defs>
		<mask maskUnits="userSpaceOnUse" x="6.968" y="6.138" width="18.93" height="18.363" id="XMLID_18_">
			<g filter="url(#Adobe_OpacityMaskFilter_1_)">
				<linearGradient id="XMLID_1_" gradientUnits="userSpaceOnUse" x1="16.3188" y1="6.7117" x2="16.3188" y2="14.0804">
					<stop  offset="0" style="stop-color:#FFFFFF"/>
					<stop  offset="1" style="stop-color:#000000"/>
				</linearGradient>
				<rect x="6.241" y="5.949" fill="url(#XMLID_1_)" width="20.157" height="18.802"/>
			</g>
		</mask>
		<path mask="url(#XMLID_18_)" fill="none" stroke="#FFFFFF" d="M17.896,23.399c-0.852,0.803-2.248,0.803-3.101,0l-7.028-6.647
			c-0.673-1.512,0-2.933,0-2.933l7.311-6.664c1.283-0.762,2.003-0.617,3.059,0.012l6.79,6.652c0.604,0.502,0.652,2.243,0,2.932
			L17.896,23.399z"/>
	</g>
</g>
<g id="Layer_12">
	<g filter="url(#Gaussian_Blur)">
		<path fill="#C58959" d="M14.919,10.79c1.051-1.02,2.771-1.02,3.822,0l4.463,4.33c1.05,1.021,1.05,2.689,0,3.708l-4.463,4.329
			c-1.051,1.021-2.771,1.021-3.821,0l-4.464-4.329c-1.052-1.019-1.052-2.688,0-3.708L14.919,10.79z"/>
	</g>
</g>
<g id="Layer_10">
	<radialGradient id="XMLID_2_" cx="16.2749" cy="10.7976" r="9.4347" gradientUnits="userSpaceOnUse">
		<stop  offset="0.0169" style="stop-color:#FFFBCB"/>
		<stop  offset="0.427" style="stop-color:#FDEA4F"/>
		<stop  offset="0.8034" style="stop-color:#FDEF74"/>
		<stop  offset="1" style="stop-color:#FCF8C1"/>
	</radialGradient>
	<path fill="url(#XMLID_2_)" d="M14.28,8.237c1.208-1.207,3.184-1.207,4.39,0l5.126,5.125c1.206,1.207,1.206,3.182,0,4.39
		l-5.124,5.124c-1.208,1.207-3.183,1.207-4.391,0l-5.126-5.124c-1.208-1.208-1.208-3.183,0-4.39L14.28,8.237z"/>
	<defs>
		<filter id="Adobe_OpacityMaskFilter_2_" filterUnits="userSpaceOnUse" x="8.164" y="7.223" width="16.622" height="16.173">
			<feColorMatrix  type="matrix" values="1 0 0 0 0  0 1 0 0 0  0 0 1 0 0  0 0 0 1 0"/>
		</filter>
	</defs>
	<mask maskUnits="userSpaceOnUse" x="8.164" y="7.223" width="16.622" height="16.173" id="XMLID_3_">
		<g filter="url(#Adobe_OpacityMaskFilter_2_)">
			
				<linearGradient id="XMLID_4_" gradientUnits="userSpaceOnUse" x1="16.4556" y1="7.8264" x2="16.4556" y2="14.2405" gradientTransform="matrix(-1 0 0 -1 32.9541 30.6011)">
				<stop  offset="0" style="stop-color:#FFFFFF"/>
				<stop  offset="1" style="stop-color:#000000"/>
			</linearGradient>
			<rect x="7.959" y="7.071" fill="url(#XMLID_4_)" width="17.08" height="16.367"/>
		</g>
	</mask>
	<path opacity="0.57" mask="url(#XMLID_3_)" fill="none" stroke="#FFFFFF" d="M15.162,8.25c0.723-0.703,1.905-0.703,2.629,0
		l5.954,5.784c0.722,0.701,0.722,1.85,0,2.551l-5.954,5.784c-0.723,0.702-1.906,0.702-2.629,0l-5.956-5.784
		c-0.722-0.702-0.722-1.85,0-2.551L15.162,8.25z"/>
</g>
<g id="Layer_11">
	<path fill="none" stroke="#D77841" d="M14.28,8.237c1.208-1.207,3.184-1.207,4.39,0l5.126,5.125c1.206,1.207,1.206,3.182,0,4.39
		l-5.124,5.124c-1.208,1.207-3.183,1.207-4.391,0l-5.126-5.124c-1.208-1.208-1.208-3.183,0-4.39L14.28,8.237z"/>
</g>
</svg>
