<?xml version="1.0" encoding="utf-8"?>
<!-- Generator: Adobe Illustrator 12.0.0, SVG Export Plug-In . SVG Version: 6.00 Build 51448)  -->
<!DOCTYPE svg PUBLIC "-//W3C//DTD SVG 1.1//EN" "http://www.w3.org/Graphics/SVG/1.1/DTD/svg11.dtd" [
	<!ENTITY ns_svg "http://www.w3.org/2000/svg">
	<!ENTITY ns_xlink "http://www.w3.org/1999/xlink">
]>
<svg  version="1.1" xmlns="&ns_svg;" xmlns:xlink="&ns_xlink;" width="33" height="34.18" viewBox="0 0 33 34.18"
	 overflow="visible" enable-background="new 0 0 33 34.18" xml:space="preserve">
<filter  id="Gaussian_Blur">
	<feGaussianBlur  in="SourceGraphic" stdDeviation="1"></feGaussianBlur>
</filter>
<g id="Layer_1">
	<g id="Layer_4_2_" display="none">
		<g id="Layer_1_2_" display="inline">
			<rect x="0.536" y="0" fill="#636466" fill-opacity="0" stroke="#347A3C" width="32" height="32"/>
		</g>
	</g>
	<g id="Layer_1_3_" opacity="0.02">
		<rect x="0.536" y="0" fill="#636466" fill-opacity="0" stroke="#347A3C" width="32" height="32"/>
	</g>
</g>
<g id="Layer_2_2_">
	<g id="trans_bg">
		<g id="Layer_2" display="none">
			<rect x="0.5" y="1.679" display="inline" fill="#FFFFFF" fill-opacity="0" width="32" height="32"/>
			<g display="inline">
				
					<radialGradient id="XMLID_17_" cx="22.7432" cy="605.344" r="7.904" gradientTransform="matrix(1 0 0 1 0 -578.8203)" gradientUnits="userSpaceOnUse">
					<stop  offset="0.0169" style="stop-color:#D9D9D9"/>
					<stop  offset="0.7079" style="stop-color:#838282"/>
				</radialGradient>
				<circle fill="url(#XMLID_17_)" cx="22.743" cy="18.621" r="7.903"/>
			</g>
			<g display="inline" opacity="0.57" filter="url(#Gaussian_Blur)">
				<circle fill="#363637" cx="23.021" cy="20.621" r="7.903"/>
			</g>
			<g display="inline">
				<circle fill="url(#XMLID_17_)" cx="22.743" cy="18.621" r="7.903"/>
			</g>
			<g display="inline">
				<circle fill="url(#XMLID_17_)" cx="22.743" cy="18.621" r="7.903"/>
			</g>
			<defs>
				<filter id="Adobe_OpacityMaskFilter" filterUnits="userSpaceOnUse" x="14.84" y="10.718" width="15.807" height="15.806">
					<feColorMatrix  type="matrix" values="1 0 0 0 0  0 1 0 0 0  0 0 1 0 0  0 0 0 1 0"/>
				</filter>
			</defs>
			<mask maskUnits="userSpaceOnUse" x="14.84" y="10.718" width="15.807" height="15.806" id="XMLID_20_" display="inline">
				<g filter="url(#Adobe_OpacityMaskFilter)">
					<g>
						
							<linearGradient id="XMLID_21_" gradientUnits="userSpaceOnUse" x1="22.7432" y1="591.1975" x2="22.7432" y2="593.2674" gradientTransform="matrix(1 0 0 1 0 -578.8203)">
							<stop  offset="0.0056" style="stop-color:#FFFFFF"/>
							<stop  offset="1" style="stop-color:#010101"/>
						</linearGradient>
						<circle fill="url(#XMLID_21_)" cx="22.743" cy="18.621" r="7.903"/>
					</g>
				</g>
			</mask>
			<g display="inline" mask="url(#XMLID_20_)">
				<circle fill="#FFFFFF" cx="22.743" cy="18.621" r="7.903"/>
			</g>
			<g display="inline">
				
					<radialGradient id="XMLID_22_" cx="22.166" cy="605.0823" r="9.1102" gradientTransform="matrix(1 0 0 1 0 -578.8203)" gradientUnits="userSpaceOnUse">
					<stop  offset="0.0169" style="stop-color:#D9D9D9"/>
					<stop  offset="0.7079" style="stop-color:#848282"/>
				</radialGradient>
				<path fill="url(#XMLID_22_)" d="M14.34,18.621c0,4.634,3.77,8.402,8.404,8.402c4.633,0,8.402-3.771,8.402-8.402
					s-3.771-8.404-8.402-8.404C18.109,10.217,14.34,13.987,14.34,18.621z"/>
				<g>
					<path fill="#373738" d="M22.744,9.717c-2.379,0-4.615,0.927-6.297,2.608c-1.681,1.682-2.607,3.918-2.607,6.296
						c0,4.909,3.994,8.902,8.904,8.902c4.908,0,8.902-3.993,8.902-8.902C31.646,13.711,27.652,9.717,22.744,9.717L22.744,9.717z
						 M14.84,18.621c0-4.365,3.537-7.904,7.904-7.904c4.365,0,7.902,3.539,7.902,7.904l0,0l0,0c0,4.364-3.537,7.902-7.902,7.902
						C18.377,26.524,14.84,22.986,14.84,18.621L14.84,18.621L14.84,18.621z"/>
				</g>
			</g>
		</g>
		<g id="Layer_1_1_">
			<rect x="0.536" y="0" fill="#231F20" fill-opacity="0" width="32" height="32"/>
		</g>
		<g id="Layer_2_1_" display="none">
			<rect x="0.5" y="1.679" display="inline" fill="#FFFFFF" fill-opacity="0" width="32" height="32"/>
			<g display="inline">
				<circle fill="url(#XMLID_17_)" cx="22.743" cy="18.621" r="7.903"/>
			</g>
			<g display="inline" opacity="0.57" filter="url(#Gaussian_Blur)">
				<circle fill="#363637" cx="23.021" cy="20.621" r="7.903"/>
			</g>
			<g display="inline">
				<circle fill="url(#XMLID_17_)" cx="22.743" cy="18.621" r="7.903"/>
			</g>
			<g display="inline">
				<circle fill="url(#XMLID_17_)" cx="22.743" cy="18.621" r="7.903"/>
			</g>
			<defs>
				<filter id="Adobe_OpacityMaskFilter_1_" filterUnits="userSpaceOnUse" x="14.84" y="10.718" width="15.807" height="15.806">
					<feColorMatrix  type="matrix" values="1 0 0 0 0  0 1 0 0 0  0 0 1 0 0  0 0 0 1 0"/>
				</filter>
			</defs>
			<mask maskUnits="userSpaceOnUse" x="14.84" y="10.718" width="15.807" height="15.806" id="XMLID_7_" display="inline">
				<g filter="url(#Adobe_OpacityMaskFilter_1_)">
					<g>
						<circle fill="url(#XMLID_21_)" cx="22.743" cy="18.621" r="7.903"/>
					</g>
				</g>
			</mask>
			<g display="inline" mask="url(#XMLID_7_)">
				<circle fill="#FFFFFF" cx="22.743" cy="18.621" r="7.903"/>
			</g>
			<g display="inline">
				<path fill="url(#XMLID_22_)" d="M14.34,18.621c0,4.634,3.77,8.402,8.404,8.402c4.633,0,8.402-3.771,8.402-8.402
					s-3.771-8.404-8.402-8.404C18.109,10.217,14.34,13.987,14.34,18.621z"/>
				<g>
					<path fill="#373738" d="M22.744,9.717c-2.379,0-4.615,0.927-6.297,2.608c-1.681,1.682-2.607,3.918-2.607,6.296
						c0,4.909,3.994,8.902,8.904,8.902c4.908,0,8.902-3.993,8.902-8.902C31.646,13.711,27.652,9.717,22.744,9.717L22.744,9.717z
						 M14.84,18.621c0-4.365,3.537-7.904,7.904-7.904c4.365,0,7.902,3.539,7.902,7.904l0,0l0,0c0,4.364-3.537,7.902-7.902,7.902
						C18.377,26.524,14.84,22.986,14.84,18.621L14.84,18.621L14.84,18.621z"/>
				</g>
			</g>
		</g>
	</g>
	<g id="Layer_3_1_">
		<g id="Layer_5">
			<g id="shadow" opacity="0.45">
				<g opacity="0.75" filter="url(#Gaussian_Blur)">
					<circle opacity="0.49" fill="#020202" enable-background="new    " cx="10.758" cy="17.481" r="8"/>
				</g>
			</g>
			<g id="Layer_5_1_">
				
					<radialGradient id="XMLID_4_" cx="9.7578" cy="1361.5217" r="7.9994" gradientTransform="matrix(1 0 0 1 0 -1338.041)" gradientUnits="userSpaceOnUse">
					<stop  offset="0.0169" style="stop-color:#D9D9D9"/>
					<stop  offset="0.7079" style="stop-color:#848282"/>
				</radialGradient>
				<circle fill="url(#XMLID_4_)" stroke="#373738" cx="9.758" cy="15.481" r="8"/>
			</g>
			<g id="Layer_4">
				<defs>
					<filter id="Adobe_OpacityMaskFilter_2_" filterUnits="userSpaceOnUse" x="1.842" y="7.398" width="16" height="16">
						<feColorMatrix  type="matrix" values="1 0 0 0 0  0 1 0 0 0  0 0 1 0 0  0 0 0 1 0"/>
					</filter>
				</defs>
				<mask maskUnits="userSpaceOnUse" x="1.842" y="7.398" width="16" height="16" id="XMLID_2_">
					<g filter="url(#Adobe_OpacityMaskFilter_2_)">
						
							<linearGradient id="XMLID_5_" gradientUnits="userSpaceOnUse" x1="9.8413" y1="1348.7502" x2="9.8413" y2="1354.3752" gradientTransform="matrix(1 0 0 1 0 -1338.041)">
							<stop  offset="0.0056" style="stop-color:#FFFFFF"/>
							<stop  offset="1" style="stop-color:#020202"/>
						</linearGradient>
						<circle fill="url(#XMLID_5_)" cx="9.842" cy="15.398" r="7.5"/>
					</g>
				</mask>
				
					<circle opacity="0.76" mask="url(#XMLID_2_)" fill="#FFFFFF" stroke="#FFFFFF" enable-background="new    " cx="9.842" cy="15.398" r="7.5"/>
			</g>
		</g>
	</g>
	<g id="Layer_2_3_">
		<g>
			<g id="Layer_3">
				<g opacity="0.41" filter="url(#Gaussian_Blur)">
					<path fill="#363637" d="M31.08,10.634l-6.959-6.185v3.093H16.39c-1.708,0-3.093,1.384-3.093,3.092s1.385,3.094,3.093,3.094
						h7.731v3.092L31.08,10.634z"/>
				</g>
			</g>
			<g id="Layer_4_1_">
				
					<linearGradient id="XMLID_6_" gradientUnits="userSpaceOnUse" x1="21.6328" y1="585.1418" x2="21.6328" y2="590.0811" gradientTransform="matrix(1 0 0 1 0 -578.8203)">
					<stop  offset="0.0056" style="stop-color:#D2E6B3"/>
					<stop  offset="0.5506" style="stop-color:#60A744"/>
					<stop  offset="0.7921" style="stop-color:#449343"/>
					<stop  offset="1" style="stop-color:#5BAC74"/>
				</linearGradient>
				<path fill="url(#XMLID_6_)" stroke="#347A3C" stroke-linecap="round" stroke-linejoin="round" d="M30.523,9.542l-6.959-6.186
					V6.45h-7.73c-1.708,0-3.092,1.384-3.092,3.092s1.385,3.093,3.092,3.093h7.732v3.093L30.523,9.542z"/>
			</g>
		</g>
	</g>
</g>
</svg>
