<?xml version="1.0" encoding="utf-8"?>
<!-- Generator: Adobe Illustrator 12.0.0, SVG Export Plug-In . SVG Version: 6.00 Build 51448)  -->
<!DOCTYPE svg PUBLIC "-//W3C//DTD SVG 1.1//EN" "http://www.w3.org/Graphics/SVG/1.1/DTD/svg11.dtd" [
	<!ENTITY ns_svg "http://www.w3.org/2000/svg">
	<!ENTITY ns_xlink "http://www.w3.org/1999/xlink">
]>
<svg  version="1.1" xmlns="&ns_svg;" xmlns:xlink="&ns_xlink;" width="33" height="34.18" viewBox="0 0 33 34.18"
	 overflow="visible" enable-background="new 0 0 33 34.18" xml:space="preserve">
<filter  id="Gaussian_Blur">
	<feGaussianBlur  in="SourceGraphic" stdDeviation="1"></feGaussianBlur>
</filter>
<g id="trans_bg">
	<g id="Layer_2" display="none">
		<rect x="0.5" y="1.679" display="inline" fill="#FFFFFF" fill-opacity="0" width="32" height="32"/>
		<g display="inline">
			
				<radialGradient id="XMLID_37_" cx="22.7432" cy="6.6555" r="7.9035" gradientTransform="matrix(1 0 0 -1 0 33.1792)" gradientUnits="userSpaceOnUse">
				<stop  offset="0.0169" style="stop-color:#D9D9D9"/>
				<stop  offset="0.7079" style="stop-color:#838282"/>
			</radialGradient>
			<circle fill="url(#XMLID_37_)" cx="22.743" cy="18.621" r="7.903"/>
		</g>
		<g display="inline" opacity="0.57" filter="url(#Gaussian_Blur)">
			<circle fill="#363637" cx="23.021" cy="20.621" r="7.903"/>
		</g>
		<g display="inline">
			<circle fill="url(#XMLID_37_)" cx="22.743" cy="18.621" r="7.903"/>
		</g>
		<g display="inline">
			<circle fill="url(#XMLID_37_)" cx="22.743" cy="18.621" r="7.903"/>
		</g>
		<defs>
			<filter id="Adobe_OpacityMaskFilter" filterUnits="userSpaceOnUse" x="14.84" y="10.718" width="15.807" height="15.807">
				<feColorMatrix  type="matrix" values="1 0 0 0 0  0 1 0 0 0  0 0 1 0 0  0 0 0 1 0"/>
			</filter>
		</defs>
		<mask maskUnits="userSpaceOnUse" x="14.84" y="10.718" width="15.807" height="15.807" id="XMLID_20_" display="inline">
			<g filter="url(#Adobe_OpacityMaskFilter)">
				<g>
					
						<linearGradient id="XMLID_40_" gradientUnits="userSpaceOnUse" x1="22.7432" y1="20.8025" x2="22.7432" y2="18.7325" gradientTransform="matrix(1 0 0 -1 0 33.1792)">
						<stop  offset="0.0056" style="stop-color:#FFFFFF"/>
						<stop  offset="1" style="stop-color:#010101"/>
					</linearGradient>
					<circle fill="url(#XMLID_40_)" cx="22.743" cy="18.621" r="7.903"/>
				</g>
			</g>
		</mask>
		<g display="inline" mask="url(#XMLID_20_)">
			<circle fill="#FFFFFF" cx="22.743" cy="18.621" r="7.903"/>
		</g>
		<g display="inline">
			
				<radialGradient id="XMLID_41_" cx="22.166" cy="6.9167" r="9.1097" gradientTransform="matrix(1 0 0 -1 0 33.1792)" gradientUnits="userSpaceOnUse">
				<stop  offset="0.0169" style="stop-color:#D9D9D9"/>
				<stop  offset="0.7079" style="stop-color:#848282"/>
			</radialGradient>
			<path fill="url(#XMLID_41_)" d="M14.34,18.621c0,4.634,3.77,8.403,8.404,8.403c4.633,0,8.402-3.771,8.402-8.403
				s-3.771-8.404-8.402-8.404C18.109,10.217,14.34,13.987,14.34,18.621z"/>
			<g>
				<path fill="#373738" d="M22.744,9.717c-2.379,0-4.615,0.927-6.297,2.608c-1.681,1.682-2.607,3.918-2.607,6.296
					c0,4.909,3.994,8.903,8.904,8.903c4.908,0,8.902-3.994,8.902-8.903C31.646,13.711,27.652,9.717,22.744,9.717L22.744,9.717z
					 M14.84,18.621c0-4.365,3.537-7.904,7.904-7.904c4.365,0,7.902,3.539,7.902,7.904l0,0l0,0c0,4.365-3.537,7.903-7.902,7.903
					C18.377,26.524,14.84,22.986,14.84,18.621L14.84,18.621L14.84,18.621z"/>
			</g>
		</g>
	</g>
	<g id="Layer_1_1_">
		<rect x="0.536" y="0" fill="#231F20" fill-opacity="0" width="32" height="32"/>
	</g>
	<g id="Layer_2_1_" display="none">
		<rect x="0.5" y="1.679" display="inline" fill="#FFFFFF" fill-opacity="0" width="32" height="32"/>
		<g display="inline">
			<circle fill="url(#XMLID_37_)" cx="22.743" cy="18.621" r="7.903"/>
		</g>
		<g display="inline" opacity="0.57" filter="url(#Gaussian_Blur)">
			<circle fill="#363637" cx="23.021" cy="20.621" r="7.903"/>
		</g>
		<g display="inline">
			<circle fill="url(#XMLID_37_)" cx="22.743" cy="18.621" r="7.903"/>
		</g>
		<g display="inline">
			<circle fill="url(#XMLID_37_)" cx="22.743" cy="18.621" r="7.903"/>
		</g>
		<defs>
			<filter id="Adobe_OpacityMaskFilter_1_" filterUnits="userSpaceOnUse" x="14.84" y="10.718" width="15.807" height="15.807">
				<feColorMatrix  type="matrix" values="1 0 0 0 0  0 1 0 0 0  0 0 1 0 0  0 0 0 1 0"/>
			</filter>
		</defs>
		<mask maskUnits="userSpaceOnUse" x="14.84" y="10.718" width="15.807" height="15.807" id="XMLID_7_" display="inline">
			<g filter="url(#Adobe_OpacityMaskFilter_1_)">
				<g>
					<circle fill="url(#XMLID_40_)" cx="22.743" cy="18.621" r="7.903"/>
				</g>
			</g>
		</mask>
		<g display="inline" mask="url(#XMLID_7_)">
			<circle fill="#FFFFFF" cx="22.743" cy="18.621" r="7.903"/>
		</g>
		<g display="inline">
			<path fill="url(#XMLID_41_)" d="M14.34,18.621c0,4.634,3.77,8.403,8.404,8.403c4.633,0,8.402-3.771,8.402-8.403
				s-3.771-8.404-8.402-8.404C18.109,10.217,14.34,13.987,14.34,18.621z"/>
			<g>
				<path fill="#373738" d="M22.744,9.717c-2.379,0-4.615,0.927-6.297,2.608c-1.681,1.682-2.607,3.918-2.607,6.296
					c0,4.909,3.994,8.903,8.904,8.903c4.908,0,8.902-3.994,8.902-8.903C31.646,13.711,27.652,9.717,22.744,9.717L22.744,9.717z
					 M14.84,18.621c0-4.365,3.537-7.904,7.904-7.904c4.365,0,7.902,3.539,7.902,7.904l0,0l0,0c0,4.365-3.537,7.903-7.902,7.903
					C18.377,26.524,14.84,22.986,14.84,18.621L14.84,18.621L14.84,18.621z"/>
			</g>
		</g>
	</g>
</g>
<g id="Layer_4_2_" display="none">
	<g id="Layer_1_2_" display="inline">
		<rect x="0.536" y="0" fill="#636466" fill-opacity="0" stroke="#347A3C" width="32" height="32"/>
	</g>
</g>
<g id="Layer_3_1_">
	<g id="Layer_5">
		<g id="shadow" opacity="0.45">
			<g opacity="0.75" filter="url(#Gaussian_Blur)">
				<circle opacity="0.49" fill="#020202" enable-background="new    " cx="23.758" cy="17.481" r="8"/>
			</g>
		</g>
		<g id="Layer_5_1_">
			
				<radialGradient id="XMLID_24_" cx="22.7578" cy="-749.5217" r="7.9994" gradientTransform="matrix(1 0 0 -1 0 -726.0405)" gradientUnits="userSpaceOnUse">
				<stop  offset="0.0169" style="stop-color:#D9D9D9"/>
				<stop  offset="0.7079" style="stop-color:#848282"/>
			</radialGradient>
			<circle fill="url(#XMLID_24_)" stroke="#373738" cx="22.758" cy="15.481" r="8"/>
		</g>
		<g id="Layer_4">
			<defs>
				<filter id="Adobe_OpacityMaskFilter_2_" filterUnits="userSpaceOnUse" x="14.842" y="7.398" width="16" height="16">
					<feColorMatrix  type="matrix" values="1 0 0 0 0  0 1 0 0 0  0 0 1 0 0  0 0 0 1 0"/>
				</filter>
			</defs>
			<mask maskUnits="userSpaceOnUse" x="14.842" y="7.398" width="16" height="16" id="XMLID_2_">
				<g filter="url(#Adobe_OpacityMaskFilter_2_)">
					
						<linearGradient id="XMLID_25_" gradientUnits="userSpaceOnUse" x1="22.8418" y1="-736.7507" x2="22.8418" y2="-742.3756" gradientTransform="matrix(1 0 0 -1 0 -726.0405)">
						<stop  offset="0.0056" style="stop-color:#FFFFFF"/>
						<stop  offset="1" style="stop-color:#020202"/>
					</linearGradient>
					<circle fill="url(#XMLID_25_)" cx="22.842" cy="15.398" r="7.5"/>
				</g>
			</mask>
			
				<circle opacity="0.76" mask="url(#XMLID_2_)" fill="#FFFFFF" stroke="#FFFFFF" enable-background="new    " cx="22.842" cy="15.398" r="7.5"/>
		</g>
	</g>
</g>
<g id="Layer_2_3_" display="none">
	<g display="inline">
		<g id="Layer_3_2_" filter="url(#Gaussian_Blur)">
			<g opacity="0.41">
				<path fill="#363637" d="M9.571,27.301v-3.092h7.731c1.708,0,3.093-1.386,3.093-3.094s-1.385-3.092-3.093-3.092H9.571V14.93
					l-6.959,6.185L9.571,27.301z"/>
			</g>
		</g>
		<g id="Layer_4_3_">
			
				<linearGradient id="XMLID_26_" gradientUnits="userSpaceOnUse" x1="31.7627" y1="16.3767" x2="31.7627" y2="11.4371" gradientTransform="matrix(-1 0 0 -1 43.8223 33.1792)">
				<stop  offset="0.0056" style="stop-color:#D2E6B3"/>
				<stop  offset="0.5506" style="stop-color:#60A744"/>
				<stop  offset="0.7921" style="stop-color:#449343"/>
				<stop  offset="1" style="stop-color:#5BAC74"/>
			</linearGradient>
			<path fill="url(#XMLID_26_)" stroke="#347A3C" stroke-linecap="round" stroke-linejoin="round" d="M10.126,26.209v-3.093h7.732
				c1.707,0,3.092-1.385,3.092-3.093s-1.385-3.092-3.092-3.092h-7.731v-3.093l-6.958,6.185L10.126,26.209z"/>
		</g>
	</g>
</g>
<g id="Layer_2_copy">
	<g id="Layer_2_2_">
		<g>
			<g id="Layer_3">
				<g opacity="0.41" filter="url(#Gaussian_Blur)">
					<path fill="#363637" d="M21.08,10.634l-6.959-6.185v3.093h-7.73c-1.709,0-3.094,1.384-3.094,3.092s1.385,3.094,3.094,3.094
						h7.73v3.092L21.08,10.634z"/>
				</g>
			</g>
			<g id="Layer_4_4_">
				
					<linearGradient id="XMLID_27_" gradientUnits="userSpaceOnUse" x1="11.6328" y1="585.1414" x2="11.6328" y2="590.0806" gradientTransform="matrix(1 0 0 1 0 -578.8203)">
					<stop  offset="0.0056" style="stop-color:#D2E6B3"/>
					<stop  offset="0.5506" style="stop-color:#60A744"/>
					<stop  offset="0.7921" style="stop-color:#449343"/>
					<stop  offset="1" style="stop-color:#5BAC74"/>
				</linearGradient>
				<path fill="url(#XMLID_27_)" stroke="#347A3C" stroke-linecap="round" stroke-linejoin="round" d="M20.523,9.542l-6.959-6.186
					V6.45h-7.73c-1.708,0-3.092,1.384-3.092,3.092s1.385,3.093,3.092,3.093h7.732v3.093L20.523,9.542z"/>
			</g>
		</g>
	</g>
</g>
<g id="Layer_6" display="none">
	<g id="Layer_2_copy_1_" display="inline">
		<g id="Layer_3_3_" filter="url(#Gaussian_Blur)">
			<g opacity="0.41">
				<path fill="#363637" d="M9.701,27.818v-3.092h7.73c1.709,0,3.094-1.386,3.094-3.094s-1.385-3.092-3.094-3.092h-7.73v-3.093
					l-6.959,6.185L9.701,27.818z"/>
			</g>
		</g>
		<g id="Layer_4_1_">
			
				<linearGradient id="XMLID_28_" gradientUnits="userSpaceOnUse" x1="-728.3672" y1="596.1404" x2="-728.3672" y2="601.08" gradientTransform="matrix(-1 0 0 1 -716.1777 -578.8203)">
				<stop  offset="0.0056" style="stop-color:#D2E6B3"/>
				<stop  offset="0.5506" style="stop-color:#60A744"/>
				<stop  offset="0.7921" style="stop-color:#449343"/>
				<stop  offset="1" style="stop-color:#5BAC74"/>
			</linearGradient>
			<path fill="url(#XMLID_28_)" stroke="#347A3C" stroke-linecap="round" stroke-linejoin="round" d="M10.256,26.726v-3.093h7.732
				c1.707,0,3.092-1.385,3.092-3.093s-1.385-3.092-3.092-3.092h-7.731v-3.094l-6.958,6.186L10.256,26.726z"/>
		</g>
	</g>
</g>
</svg>
